@startuml "Classes"

top to bottom direction

class Alerta <<abstract>> {
  - number timerHandler
  + Date horario
  + boolean absoluto
  + string descricao
  + cancelar()
}
note left of Alerta : Alerta 

class AlertaRelativo {
  constructor(desc, horExpr)
  + ajustar(horExpr)
  + string: getTempoRestante()
}

class AlertaAbsoluto {
  + ajustar(hor)
  constructor(desc, hor)
}

Alerta <|-- AlertaRelativo
Alerta <|-- AlertaAbsoluto

@enduml
